HIERARCHY
ROOT Hips
{
	OFFSET 0.000000 88.474243 0.000000
	CHANNELS 6 Xposition Yposition Zposition Zrotation Yrotation Xrotation 
	JOINT Hips_Spine
	{
		OFFSET 0.000000 0.000000 0.000000
		CHANNELS 3 Zrotation Yrotation Xrotation
		JOINT Spine
		{
			OFFSET 0.005100 8.711998 -0.691000
			CHANNELS 3 Zrotation Yrotation Xrotation
			JOINT Spine1
			{
				OFFSET -0.009200 8.660301 -1.275000
				CHANNELS 3 Zrotation Yrotation Xrotation
				JOINT Spine2
				{
					OFFSET 0.006300 9.852501 -1.857000
					CHANNELS 3 Zrotation Yrotation Xrotation
					JOINT Spine2_Neck
					{
						OFFSET 0.000000 0.000000 0.000000
						CHANNELS 3 Zrotation Yrotation Xrotation
						JOINT Neck
						{
							OFFSET 0.016300 11.420799 -0.263300
							CHANNELS 3 Zrotation Yrotation Xrotation
							End Site #name: Head
							{
								OFFSET -0.019200 9.262405 2.362500
							}
						}
					}
					JOINT Spine2_LeftShoulder
					{
						OFFSET 0.000000 0.000000 0.000000
						CHANNELS 3 Zrotation Yrotation Xrotation
						JOINT LeftShoulder
						{
							OFFSET 5.616900 6.732201 -0.345700
							CHANNELS 3 Zrotation Yrotation Xrotation
							JOINT LeftArm
							{
								OFFSET 10.664888 -0.183372 -2.440700
								CHANNELS 3 Zrotation Yrotation Xrotation
								JOINT LeftForeArm
								{
									OFFSET 27.459126 0.000000 0.000000
									CHANNELS 3 Zrotation Yrotation Xrotation
									End Site #name: LeftHand
									{
										OFFSET 21.306858 0.000000 0.000000
									}
								}
							}
						}
					}
					JOINT Spine2_RightShoulder
					{
						OFFSET 0.000000 0.000000 0.000000
						CHANNELS 3 Zrotation Yrotation Xrotation
						JOINT RightShoulder
						{
							OFFSET -5.580300 6.737503 -0.344400
							CHANNELS 3 Zrotation Yrotation Xrotation
							JOINT RightArm
							{
								OFFSET -10.679335 -0.188484 -2.383900
								CHANNELS 3 Zrotation Yrotation Xrotation
								JOINT RightForeArm
								{
									OFFSET -27.503529 0.000000 0.000000
									CHANNELS 3 Zrotation Yrotation Xrotation
									End Site #name: RightHand
									{
										OFFSET -21.306808 0.000000 0.000000
									}
								}
							}
						}
					}
				}
			}
		}
	}
	JOINT Hips_LeftUpLeg
	{
		OFFSET 0.000000 0.000000 0.000000
		CHANNELS 3 Zrotation Yrotation Xrotation
		JOINT LeftUpLeg
		{
			OFFSET 6.857700 -6.739601 0.312100
			CHANNELS 3 Zrotation Yrotation Xrotation
			JOINT LeftLeg
			{
				OFFSET -0.367590 -34.731552 -4.572400
				CHANNELS 3 Zrotation Yrotation Xrotation
				End Site #name: LeftFoot
				{
					OFFSET 0.367590 -34.656704 -6.067400
				}
			}
		}
	}
	JOINT Hips_RightUpLeg
	{
		OFFSET 0.000000 0.000000 0.000000
		CHANNELS 3 Zrotation Yrotation Xrotation
		JOINT RightUpLeg
		{
			OFFSET -6.876100 -6.733299 0.301000
			CHANNELS 3 Zrotation Yrotation Xrotation
			JOINT RightLeg
			{
				OFFSET 0.347353 -34.795158 -4.515900
				CHANNELS 3 Zrotation Yrotation Xrotation
				End Site #name: RightFoot
				{
					OFFSET -0.347353 -34.589367 -6.070300
				}
			}
		}
	}
}
MOTION
Frames: 15
Frame Time: 0.041667
0.189656 0.033872 0.038095 0.495339 11.175784 -7.745236 0.000000 0.000000 0.000000 0.545661 -1.780102 1.881297 0.653226 -0.883070 1.111101 0.000000 0.000000 0.000000 1.042035 -0.892492 0.140859 1.442826 -0.294593 -0.779141 1.351084 -1.296431 0.074231 -14.925952 -6.896501 1.540003 -49.288435 -1.752531 34.515856 0.822086 -24.453282 3.067533 0.522802 -0.625234 1.004952 18.538970 10.700244 5.478012 56.130847 1.503818 6.326411 0.452037 53.523473 0.954816 0.000000 0.000000 -0.000000 -5.438289 10.502472 -6.065567 1.403642 4.791303 21.236198 0.000000 0.000000 0.000000 4.193865 -3.817013 -4.004626 0.862866 5.965829 -4.220483 
0.632687 -0.014866 0.095659 1.823447 12.944305 -8.676330 0.000000 0.000000 0.000000 0.167060 -0.578735 0.210728 1.133557 -0.737374 0.898763 0.000000 0.000000 0.000000 1.117679 -0.602758 -0.183186 1.195229 -1.092611 -0.498033 1.080788 -0.749350 -0.220032 -19.015323 -3.179522 -0.158823 -49.658788 -1.528961 34.927956 -0.578241 -27.072242 1.359383 0.775033 -0.585815 0.614109 19.894232 8.653518 3.950672 58.480003 5.290959 14.513476 0.135958 45.137324 0.089599 0.000000 0.000000 -0.000000 -7.629497 10.580175 -4.695279 0.018381 5.054428 20.683972 0.000000 0.000000 0.000000 0.804905 -5.427269 -2.930009 0.131636 6.712067 -2.093093 
0.911699 -0.033872 0.049773 2.745896 12.678084 -8.712314 0.000000 0.000000 0.000000 -0.396862 -0.163521 0.229970 1.449506 -0.508214 0.483143 0.000000 0.000000 0.000000 1.498679 -0.685709 -0.368290 1.440846 -0.636617 -1.686137 1.119712 -0.688420 -0.156089 -22.216547 -2.336527 -0.736926 -49.774467 4.161724 29.979715 -0.694915 -24.632636 1.420412 1.090673 -0.396110 0.608382 19.769681 9.034767 2.993429 58.385236 6.173595 16.012306 0.292174 37.681143 -0.203820 0.000000 0.000000 -0.000000 -8.976386 10.562846 -4.298872 -0.310384 4.814040 20.131348 0.000000 0.000000 0.000000 -1.017548 -5.797159 -3.993825 0.367045 5.733865 0.760773 
1.218992 -0.065093 -0.022184 2.908679 11.771746 -8.569611 0.000000 0.000000 0.000000 -0.831342 -0.118477 0.629606 1.675407 -0.587339 0.471002 0.000000 0.000000 0.000000 1.726086 -0.795456 -0.298266 1.279505 -0.608901 -1.619025 1.364825 -0.882408 -0.187690 -23.263483 -2.462441 -1.185682 -51.921870 4.853934 27.732966 -0.578065 -24.167155 1.396679 1.333990 -0.481718 0.701436 19.470584 9.635892 3.051958 58.694188 9.784245 15.407129 0.415687 39.348867 -0.226093 0.000000 0.000000 -0.000000 -9.702944 10.597328 -4.300468 -0.729776 4.100105 19.620022 0.000000 0.000000 0.000000 -1.990545 -6.135437 -5.528357 1.013481 6.378116 3.586728 
1.575531 -0.093067 -0.083974 2.742034 11.044362 -8.461566 0.000000 0.000000 0.000000 -1.188928 -0.061289 0.704728 1.755806 -0.610975 0.611926 0.000000 0.000000 0.000000 1.777467 -0.916528 -0.265533 1.117369 -0.708406 -1.079808 1.439640 -1.065009 -0.182209 -24.695248 -2.730156 -1.253002 -52.009052 4.314085 29.763198 -0.630186 -21.713805 1.499201 1.373033 -0.580494 0.823392 19.498817 9.933463 2.934591 59.621555 11.994666 14.446855 0.522406 41.956358 -0.183104 0.000000 0.000000 -0.000000 -10.114733 10.530249 -4.558588 -1.184393 2.948227 19.749095 0.000000 0.000000 0.000000 -2.485503 -6.307019 -6.836373 1.787826 7.559625 6.140211 
1.962719 -0.117683 -0.143910 2.453293 10.526305 -8.421581 0.000000 0.000000 0.000000 -1.588457 -0.030550 0.913542 1.614047 -0.659781 0.789479 0.000000 0.000000 0.000000 1.682869 -1.032506 -0.178590 1.011573 -0.863242 -0.718421 1.354054 -1.171101 -0.121669 -25.753047 -2.102190 -1.351848 -51.296567 3.089085 31.841872 -0.647342 -18.707462 1.605770 1.262372 -0.670000 0.968200 19.778340 9.768236 2.800937 60.369567 12.872499 13.226126 0.624110 43.086930 -0.137581 0.000000 0.000000 -0.000000 -10.302160 10.529374 -4.878817 -1.345054 2.182449 20.206103 0.000000 0.000000 0.000000 -2.686087 -6.222572 -7.585582 2.712870 9.322788 7.752560 
2.360664 -0.137168 -0.205423 2.095106 10.202655 -8.421030 0.000000 0.000000 0.000000 -1.993168 -0.061754 1.260704 1.452774 -0.709129 0.935972 0.000000 0.000000 0.000000 1.559962 -1.109107 -0.052276 0.916161 -1.011715 -0.559436 1.241329 -1.217473 0.020143 -26.626855 -1.309070 -1.471637 -50.454030 2.434143 32.782680 -0.544784 -15.150666 1.850604 1.128607 -0.742018 1.078689 19.875131 9.685850 2.720891 60.996371 13.039368 12.248901 0.696652 43.191940 -0.103549 0.000000 0.000000 -0.000000 -10.394541 10.539945 -5.181169 -1.201171 1.966411 20.649806 0.000000 0.000000 0.000000 -2.790244 -6.243871 -7.967503 3.674244 11.167119 8.737462 
2.745461 -0.152033 -0.266224 1.749335 10.116344 -8.398789 0.000000 0.000000 0.000000 -2.334459 -0.036227 1.485066 1.332285 -0.723303 1.027512 0.000000 0.000000 0.000000 1.408601 -1.121642 0.086798 0.820890 -1.129812 -0.523500 1.131760 -1.200670 0.144856 -27.491292 -0.754486 -1.606368 -49.550260 2.038803 32.762771 -0.486506 -12.199179 1.937799 1.026370 -0.765048 1.153595 19.921638 9.708812 2.686223 61.498846 12.864206 11.841180 0.751631 42.794546 -0.073864 0.000000 0.000000 -0.000000 -10.500559 10.533128 -5.498457 -1.125605 1.708926 21.074393 0.000000 0.000000 0.000000 -2.993179 -6.307256 -8.248611 4.411607 12.425804 9.481666 
3.089884 -0.163723 -0.324463 1.454191 10.233667 -8.341693 0.000000 0.000000 0.000000 -2.650389 0.043405 1.712779 1.233554 -0.683126 1.053044 0.000000 0.000000 0.000000 1.281165 -1.069030 0.207149 0.720884 -1.210075 -0.503163 1.040414 -1.149685 0.218920 -28.091014 -0.542840 -1.670346 -48.999345 1.641049 32.300176 -0.450358 -9.868069 1.929221 0.954842 -0.707265 1.195148 19.796565 9.700774 2.623790 61.880106 12.504670 11.200785 0.790483 41.878290 -0.043930 0.000000 0.000000 -0.000000 -10.646289 10.468042 -5.843996 -1.023293 1.511652 21.560837 0.000000 0.000000 0.000000 -3.298202 -6.321401 -8.451095 4.770067 12.822053 10.028111 
3.384496 -0.174575 -0.381181 1.266275 10.434577 -8.277954 0.000000 0.000000 0.000000 -2.912992 0.107981 1.968651 1.126955 -0.591518 1.038890 0.000000 0.000000 0.000000 1.163248 -0.959362 0.295412 0.650554 -1.262375 -0.481611 0.952812 -1.051404 0.274387 -28.409349 -0.464868 -1.722121 -48.830623 1.133556 31.762893 -0.420898 -8.399102 1.903933 0.880098 -0.586996 1.223860 19.632791 9.555822 2.515948 62.060684 12.209803 10.811531 0.817682 40.708168 -0.038618 0.000000 0.000000 -0.000000 -10.824800 10.358906 -6.154221 -0.911746 1.458316 22.000135 0.000000 0.000000 0.000000 -3.653293 -6.306664 -8.602441 4.840175 12.873680 10.588558 
3.620548 -0.186941 -0.439882 1.180478 10.606431 -8.227989 0.000000 0.000000 0.000000 -3.170542 0.186156 2.271962 1.013013 -0.470303 0.997824 0.000000 0.000000 0.000000 1.045380 -0.819863 0.363533 0.596697 -1.324580 -0.428479 0.856812 -0.915275 0.320373 -28.476644 -0.404383 -1.770234 -49.039023 0.452010 31.335828 -0.394318 -7.844757 1.874342 0.794400 -0.437799 1.246059 19.499288 9.400651 2.432604 62.143491 12.143854 10.687276 0.837454 39.526336 -0.045256 0.000000 0.000000 -0.000000 -11.019370 10.237001 -6.380777 -0.802029 1.555562 22.299098 0.000000 0.000000 0.000000 -4.014254 -6.323476 -8.840218 4.849689 12.896173 11.447421 
3.787788 -0.199033 -0.500854 1.180402 10.667477 -8.201412 0.000000 0.000000 0.000000 -3.409181 0.262150 2.593821 0.913810 -0.340185 0.933079 0.000000 0.000000 0.000000 0.947533 -0.675314 0.408654 0.555182 -1.388895 -0.353758 0.770209 -0.772246 0.363727 -28.375478 -0.349857 -1.779739 -49.540929 -0.230981 31.191392 -0.351966 -8.009746 1.873888 0.712178 -0.308529 1.260068 19.413142 9.214663 2.364941 62.127134 12.282959 10.702949 0.845451 38.555487 -0.057121 0.000000 0.000000 -0.000000 -11.211874 10.132758 -6.503500 -0.701208 1.778977 22.444938 0.000000 0.000000 0.000000 -4.341442 -6.343731 -9.173802 4.839334 13.048149 12.546399 
3.875731 -0.209573 -0.565562 1.239253 10.596252 -8.195122 0.000000 0.000000 0.000000 -3.585095 0.325986 2.908843 0.856876 -0.222233 0.848400 0.000000 0.000000 0.000000 0.893593 -0.547705 0.425046 0.528545 -1.444872 -0.279100 0.720208 -0.659200 0.383191 -28.184314 -0.334275 -1.764525 -50.143110 -0.841457 31.254961 -0.319163 -8.605784 1.896720 0.654615 -0.195730 1.260270 19.368716 9.064404 2.317186 62.068901 12.449937 10.848911 0.852738 37.866449 -0.068065 0.000000 0.000000 -0.000000 -11.367162 10.063514 -6.535918 -0.606014 2.090662 22.462846 0.000000 0.000000 0.000000 -4.561498 -6.384673 -9.513185 4.777270 13.234453 13.464531 
3.888506 -0.216655 -0.634176 1.321812 10.368702 -8.194905 0.000000 0.000000 0.000000 -3.671031 0.377248 3.187467 0.863034 -0.135234 0.743629 0.000000 0.000000 0.000000 0.902366 -0.454799 0.414973 0.519317 -1.491236 -0.206724 0.730134 -0.598130 0.374608 -27.941088 -0.355337 -1.728360 -50.749349 -1.229518 31.461994 -0.295335 -9.448076 1.921909 0.655317 -0.116739 1.229847 19.378413 8.916260 2.280493 61.988538 12.541515 11.047446 0.852704 37.467118 -0.069757 0.000000 0.000000 -0.000000 -11.472159 10.030098 -6.513623 -0.388768 2.699816 22.415325 0.000000 0.000000 0.000000 -4.676374 -6.468286 -9.754617 4.658525 13.431668 13.921123 
3.831434 -0.220345 -0.707920 1.420133 9.938445 -8.179199 0.000000 0.000000 0.000000 -3.651442 0.414873 3.396256 0.945203 -0.087281 0.621727 0.000000 0.000000 0.000000 0.982763 -0.403500 0.372488 0.529011 -1.535973 -0.164943 0.795716 -0.557076 0.361213 -27.667043 -0.414719 -1.676393 -51.306647 -1.341403 31.748497 -0.287546 -10.351969 1.948857 0.718984 -0.078640 1.169224 19.407455 8.771277 2.252351 61.876274 12.426435 11.287749 0.855846 37.383081 -0.065886 0.000000 0.000000 -0.000000 -11.518742 10.007923 -6.484013 -0.152202 3.418687 22.352715 0.000000 0.000000 0.000000 -4.661897 -6.558114 -10.009686 4.550673 13.709520 14.083864 
